# Apple ModelIO OBJ File: model_normalized
mtllib model_normalized.mtl
g 
v -0.172227 0.054075 0.12689
v 0.171779 0.054075 -0.173126
v 0.171779 0.054075 0.12689
v -0.172227 0.054075 -0.173126
v 0.171779 0.104567 -0.126414
v 0.152584 0.036143 0.110149
v -0.148146 0.036143 0.110149
v 0.171779 0.104567 0.15226
v -0.172227 0.104567 -0.126414
v -0.148146 0.036143 -0.152125
v -0.172227 0.079321 -0.173598
v 0.152584 0.036143 -0.152125
v 0.171779 0.079321 -0.173598
v 0.171779 0.104567 -0.092773
v -0.172227 0.104567 0.15226
v 0.171779 0.228341 0.14234
v -0.172227 0.104567 -0.092773
v 0.141248 0.104567 -0.126414
v 0.171779 0.258873 -0.100654
v 0.171779 0.104567 0.114815
v 0.122149 0.013021 0.083606
v -0.124085 0.013021 -0.131143
v 0.171779 0.446211 0.231064
v -0.172227 0.228341 0.14234
v 0.171779 0.258873 0.149129
v -0.141696 0.104567 -0.126414
v -0.172227 0.104567 0.114815
v -0.141696 0.104567 -0.092773
v -0.172227 0.258873 -0.100654
v 0.122149 0.013021 -0.131143
v 0.141248 0.104567 -0.092773
v 0.141248 0.258873 -0.100654
v 0.171779 0.228341 -0.070122
v -0.124085 0.013021 0.083606
v -0.172227 0.446211 0.231064
v 0.171779 0.446211 0.190788
v -0.172227 0.258873 0.149129
v -0.141696 0.228341 0.14234
v 0.171779 0.228341 0.136807
v 0.141248 0.258873 0.149129
v -0.141696 0.228341 -0.070122
v -0.172227 0.228341 -0.070122
v -0.172227 0.446211 0.190788
v 0.141248 0.228341 0.14234
v -0.141696 0.258873 -0.100654
v 0.141248 0.228341 -0.070122
v -0.141696 0.258873 0.149129
v 0.141248 0.228341 0.136807
v -0.035446 0.013021 0.011553
v 0.02428 0.013021 -0.048171
v 0.02428 0.013021 0.011553
v 0.00867 -0.159217 -0.032566
v -0.016911 -0.159217 -0.006983
v -0.035446 0.013021 -0.048171
v -0.016911 -0.159217 -0.032566
v -0.141696 0.228341 0.149129
v 0.00867 -0.159217 -0.006983
v 0.244047 -0.239918 -0.006983
v 0.00867 -0.183474 -0.006983
v -0.016911 -0.239918 0.228391
v -0.016911 -0.183474 -0.032566
v -0.252286 -0.239918 -0.032566
v -0.016911 -0.239918 -0.26794
v 0.244047 -0.239918 -0.032566
v 0.244047 -0.239918 -0.006595
v 0.00867 -0.183474 -0.032566
v 0.00867 -0.239918 0.228391
v -0.016911 -0.183474 -0.006983
v -0.017297 -0.239918 0.228391
v -0.252286 -0.239918 -0.032954
v -0.252286 -0.239918 -0.006983
v 0.00867 -0.239918 -0.26794
v 0.244047 -0.264175 -0.032566
v 0.244047 -0.264175 -0.006983
v 0.009062 -0.264175 -0.26794
v 0.244047 -0.264175 -0.006595
v 0.003683 -0.206544 -0.027577
v 0.00867 -0.264175 0.228391
v -0.016911 -0.264175 0.228391
v -0.010516 -0.206544 -0.013379
v -0.017297 -0.264175 0.228391
v -0.252286 -0.264175 -0.032954
v -0.010516 -0.206544 -0.027577
v -0.016911 -0.264175 -0.26794
v -0.252286 -0.264175 -0.006983
v -0.252286 -0.264175 -0.032566
v 0.009062 -0.239918 -0.26794
v 0.00867 -0.264175 -0.26794
v 0.003683 -0.206544 -0.013379
vn 0 -0.01 0
vn 0.01 0 0
vn 0.00366158 -0.00842718 0.00394657
vn 0.00386999 -0.0084541 -0.00368121
vn 0.00394297 -0.00816256 0.00422205
vn -0.00367145 -0.00842163 0.00394925
vn -0.0033951 -0.00843849 0.00415514
vn 0 -0.00448968 0.00893548
vn -0.01 0 0
vn -0.00367406 -0.0084164 -0.00395796
vn -0.00332842 -0.00870785 -0.00361869
vn 0 0.00505885 -0.00862601
vn -0 -0.00018688 -0.00999825
vn 0.00366418 -0.00842197 -0.00395527
vn 0 0.00881725 -0.00471765
vn 0 0.01 0
vn 0.00338144 -0.0086652 0.00367153
vn -0.00402154 -0.0080843 -0.00429783
vn 0 -0.00224761 0.00974414
vn 0.00345261 -0.00837954 -0.00422644
vn 0 0.00164665 -0.0098635
vn -0.00394376 -0.00839471 0.00373841
vn 0 0.00217073 -0.00976155
vn 0 -0.00180008 0.00983665
vn 0.0099592 -0.00090236 -0
vn 0 -0.00106995 0.0099426
vn -0.0099426 -0.00106995 0
vn -0 -0.00090236 -0.0099592
vn 0.00324331 0.00945944 0
vn 0 -0 -0.01
vn 0 0.00945944 0.00324331
vn -0.00324331 0.00945944 0
vn 0 0.00945944 -0.00324331
vn 0 0 0.01
vn -1.648e-05 0 0.00999999
vn 1.648e-05 -0 -0.00999999
vn 0.00999999 0 1.648e-05
vn -0.00324331 -0.00945944 0
vn 0.0097741 -0.00211353 -0
vn 0 -0.00945944 -0.00324331
vn 0 -0.00267153 0.00963654
vn -0.00999999 0 -1.648e-05
vn 0.00324331 -0.00945944 0
vn -0.00963654 -0.00267153 0
vn 0 -0.00945944 0.00324331
vn -0 -0.00211353 -0.0097741
usemtl material_1
f 1//1 2//1 3//1
f 2//1 1//1 4//1
f 2//2 5//2 3//2
f 6//3 2//4 3//5
f 7//6 3//5 1//7
f 8//8 1//8 3//8
f 9//9 4//9 1//9
f 10//10 1//7 4//11
f 11//12 2//13 4//13
f 12//14 4//11 2//4
f 5//2 2//2 13//2
f 3//2 5//2 14//2
f 2//4 6//3 12//14
f 3//5 7//6 6//3
f 1//7 10//10 7//6
f 1//8 8//8 15//8
f 3//2 16//2 8//2
f 4//9 9//9 11//9
f 9//9 1//9 17//9
f 4//11 12//14 10//10
f 2//13 11//12 13//12
f 11//12 5//15 13//12
f 18//16 14//16 5//16
f 19//2 14//2 5//2
f 3//2 14//2 20//2
f 21//17 12//14 6//3
f 7//6 21//17 6//3
f 22//18 7//6 10//10
f 23//19 15//19 8//19
f 24//9 1//9 15//9
f 3//2 20//2 16//2
f 8//2 16//2 25//2
f 26//15 11//12 9//15
f 17//9 1//9 27//9
f 28//16 9//16 17//16
f 17//9 29//9 9//9
f 30//20 10//10 12//14
f 5//15 11//12 18//15
f 14//16 18//16 31//16
f 32//21 5//21 18//21
f 14//2 19//2 33//2
f 5//21 32//21 19//21
f 31//16 20//16 14//16
f 12//14 21//17 30//20
f 21//17 7//6 34//22
f 7//6 22//18 34//22
f 10//10 30//20 22//18
f 15//19 23//19 35//19
f 8//2 36//2 23//2
f 27//9 1//9 24//9
f 24//9 15//9 37//9
f 20//23 38//23 16//23
f 39//2 25//2 16//2
f 16//23 40//23 25//23
f 8//2 25//2 36//2
f 18//15 11//12 26//15
f 9//16 28//16 26//16
f 29//21 26//21 9//21
f 27//16 28//16 17//16
f 41//24 17//24 28//24
f 29//9 17//9 42//9
f 26//16 31//16 18//16
f 31//9 32//9 18//9
f 33//24 31//24 14//24
f 33//2 19//2 25//2
f 32//16 25//16 19//16
f 20//16 31//16 27//16
f 23//16 43//16 35//16
f 43//9 15//9 35//9
f 43//16 23//16 36//16
f 24//23 20//23 27//23
f 37//9 15//9 43//9
f 37//23 38//23 24//23
f 37//9 42//9 24//9
f 20//23 24//23 38//23
f 16//23 38//23 44//23
f 33//2 25//2 39//2
f 44//1 39//1 16//1
f 40//23 16//23 44//23
f 25//16 32//16 40//16
f 40//23 43//23 25//23
f 25//23 43//23 36//23
f 28//16 31//16 26//16
f 45//2 28//2 26//2
f 26//21 29//21 45//21
f 27//16 31//16 28//16
f 17//24 41//24 42//24
f 28//2 45//2 41//2
f 29//9 42//9 37//9
f 32//9 31//9 46//9
f 31//24 33//24 46//24
f 43//23 47//23 37//23
f 38//23 37//23 47//23
f 24//1 41//1 38//1
f 41//1 24//1 42//1
f 47//23 44//23 38//23
f 48//1 33//1 39//1
f 39//1 44//1 48//1
f 40//9 48//9 44//9
f 44//23 47//23 40//23
f 32//9 46//9 40//9
f 47//23 43//23 40//23
f 29//16 47//16 45//16
f 41//2 45//2 47//2
f 47//16 29//16 37//16
f 33//1 48//1 46//1
f 49//1 50//1 51//1
f 51//25 52//25 50//25
f 53//26 51//26 49//26
f 50//1 49//1 54//1
f 55//27 49//27 54//27
f 52//28 54//28 50//28
f 56//2 38//2 47//2
f 41//2 47//2 38//2
f 40//9 46//9 48//9
f 52//25 51//25 57//25
f 51//26 53//26 57//26
f 49//27 55//27 53//27
f 54//28 52//28 55//28
f 58//29 52//29 57//29
f 52//9 59//9 57//9
f 59//30 53//30 57//30
f 60//31 57//31 53//31
f 53//2 61//2 55//2
f 62//32 53//32 55//32
f 52//33 63//33 55//33
f 61//34 52//34 55//34
f 52//29 58//29 64//29
f 57//29 65//29 58//29
f 59//9 52//9 66//9
f 67//2 59//2 57//2
f 59//35 65//35 57//35
f 53//30 59//30 68//30
f 57//31 60//31 67//31
f 69//31 60//31 53//31
f 61//2 53//2 68//2
f 63//9 61//9 55//9
f 61//36 70//36 55//36
f 53//32 62//32 71//32
f 62//32 55//32 70//32
f 63//33 52//33 72//33
f 52//34 61//34 66//34
f 58//2 73//2 64//2
f 64//30 66//30 52//30
f 65//2 74//2 58//2
f 75//37 52//37 66//37
f 66//38 76//38 59//38
f 59//39 77//39 66//39
f 59//2 67//2 78//2
f 65//35 59//35 76//35
f 59//40 79//40 68//40
f 80//41 59//41 68//41
f 71//34 68//34 53//34
f 68//42 69//42 53//42
f 79//34 67//34 60//34
f 81//34 60//34 69//34
f 68//43 82//43 61//43
f 83//44 68//44 61//44
f 61//9 63//9 84//9
f 70//36 61//36 82//36
f 62//9 85//9 71//9
f 70//9 86//9 62//9
f 52//33 87//33 72//33
f 88//30 63//30 72//30
f 88//45 66//45 61//45
f 66//46 83//46 61//46
f 73//2 58//2 74//2
f 66//30 64//30 73//30
f 74//2 65//2 76//2
f 52//37 75//37 87//37
f 66//45 88//45 75//45
f 66//38 74//38 76//38
f 77//39 59//39 89//39
f 83//46 66//46 77//46
f 67//34 79//34 78//34
f 79//40 59//40 78//40
f 68//40 79//40 81//40
f 59//41 80//41 89//41
f 68//44 83//44 80//44
f 68//34 71//34 85//34
f 69//42 68//42 81//42
f 60//34 81//34 79//34
f 82//43 68//43 85//43
f 63//30 88//30 84//30
f 88//45 61//45 84//45
f 86//9 70//9 82//9
f 85//9 62//9 86//9
f 75//30 72//30 87//30
f 72//30 75//30 88//30
f 74//38 66//38 73//38
f 80//1 77//1 89//1
f 77//1 80//1 83//1
f 82//43 85//43 86//43
s off
g _1
v 0.171779 0.054075 0.12689
v 0.171779 0.054075 -0.173126
v -0.172227 0.054075 0.12689
v -0.172227 0.054075 -0.173126
v 0.171779 0.104567 -0.126414
v 0.152584 0.036143 0.110149
v -0.148146 0.036143 0.110149
v 0.171779 0.104567 0.15226
v -0.172227 0.104567 -0.126414
v -0.148146 0.036143 -0.152125
v -0.172227 0.079321 -0.173598
v 0.152584 0.036143 -0.152125
v 0.171779 0.079321 -0.173598
v 0.171779 0.104567 -0.092773
v -0.172227 0.104567 0.15226
v 0.171779 0.228341 0.14234
v -0.172227 0.104567 -0.092773
v 0.141248 0.104567 -0.126414
v 0.171779 0.258873 -0.100654
v 0.171779 0.104567 0.114815
v 0.122149 0.013021 0.083606
v -0.124085 0.013021 -0.131143
v 0.171779 0.446211 0.231064
v -0.172227 0.228341 0.14234
v 0.171779 0.258873 0.149129
v -0.141696 0.104567 -0.126414
v -0.172227 0.104567 0.114815
v -0.141696 0.104567 -0.092773
v -0.172227 0.258873 -0.100654
v 0.122149 0.013021 -0.131143
v 0.141248 0.104567 -0.092773
v 0.141248 0.258873 -0.100654
v 0.171779 0.228341 -0.070122
v -0.124085 0.013021 0.083606
v -0.172227 0.446211 0.231064
v 0.171779 0.446211 0.190788
v -0.172227 0.258873 0.149129
v -0.141696 0.228341 0.14234
v 0.171779 0.228341 0.136807
v 0.141248 0.258873 0.149129
v -0.141696 0.228341 -0.070122
v -0.172227 0.228341 -0.070122
v 0.02428 0.013021 0.011553
v -0.035446 0.013021 0.011553
v 0.02428 0.013021 -0.048171
v -0.172227 0.446211 0.190788
v 0.141248 0.228341 0.14234
v -0.141696 0.258873 -0.100654
v 0.141248 0.228341 -0.070122
v -0.035446 0.013021 -0.048171
v -0.141696 0.258873 0.149129
v 0.141248 0.228341 0.136807
v 0.00867 -0.159217 -0.032566
v -0.016911 -0.159217 -0.006983
v -0.016911 -0.159217 -0.032566
v -0.141696 0.228341 0.149129
v 0.00867 -0.159217 -0.006983
v 0.244047 -0.239918 -0.006983
v 0.00867 -0.183474 -0.006983
v -0.016911 -0.239918 0.228391
v -0.016911 -0.183474 -0.032566
v -0.252286 -0.239918 -0.032566
v -0.016911 -0.239918 -0.26794
v 0.244047 -0.239918 -0.032566
v 0.244047 -0.239918 -0.006595
v 0.00867 -0.183474 -0.032566
v 0.00867 -0.239918 0.228391
v -0.016911 -0.183474 -0.006983
v -0.017297 -0.239918 0.228391
v -0.252286 -0.239918 -0.032954
v -0.252286 -0.239918 -0.006983
v 0.00867 -0.239918 -0.26794
v 0.244047 -0.264175 -0.032566
v 0.244047 -0.264175 -0.006983
v 0.009062 -0.264175 -0.26794
v 0.244047 -0.264175 -0.006595
v 0.003683 -0.206544 -0.027577
v 0.00867 -0.264175 0.228391
v -0.016911 -0.264175 0.228391
v -0.010516 -0.206544 -0.013379
v -0.017297 -0.264175 0.228391
v -0.252286 -0.264175 -0.032954
v -0.010516 -0.206544 -0.027577
v -0.016911 -0.264175 -0.26794
v -0.252286 -0.264175 -0.006983
v -0.252286 -0.264175 -0.032566
v 0.009062 -0.239918 -0.26794
v 0.00867 -0.264175 -0.26794
v 0.003683 -0.206544 -0.013379
vn 0 0.01 0
vn -0.01 0 0
vn -0.00394297 0.00816256 -0.00422205
vn -0.00386999 0.0084541 0.00368121
vn -0.00366158 0.00842718 -0.00394657
vn 0.0033951 0.00843849 -0.00415514
vn 0.00367145 0.00842163 -0.00394925
vn 0 0.00448968 -0.00893548
vn 0.01 0 0
vn 0.00332842 0.00870785 0.00361869
vn 0.00367406 0.0084164 0.00395796
vn 0 0.00018688 0.00999825
vn 0 -0.00505885 0.00862601
vn -0.00366418 0.00842197 0.00395527
vn 0 -0.00881725 0.00471765
vn 0 -0.01 0
vn -0.00338144 0.0086652 -0.00367153
vn 0.00402154 0.0080843 0.00429783
vn 0 0.00224761 -0.00974414
vn -0.00345261 0.00837954 0.00422644
vn 0 -0.00164665 0.0098635
vn 0.00394376 0.00839471 -0.00373841
vn 0 -0.00217073 0.00976155
vn 0 0.00180008 -0.00983665
vn -0.0099592 0.00090236 0
vn 0 0.00106995 -0.0099426
vn 0.0099426 0.00106995 0
vn 0 0.00090236 0.0099592
vn -0.00324331 -0.00945944 0
vn 0 0 0.01
vn 0 -0.00945944 -0.00324331
vn 0.00324331 -0.00945944 0
vn 0 -0.00945944 0.00324331
vn 0 -0 -0.01
vn 1.648e-05 -0 -0.00999999
vn -1.648e-05 0 0.00999999
vn -0.00999999 0 -1.648e-05
vn 0.00324331 0.00945944 0
vn -0.0097741 0.00211353 0
vn 0 0.00945944 0.00324331
vn 0 0.00267153 -0.00963654
vn 0.00999999 0 1.648e-05
vn -0.00324331 0.00945944 0
vn 0.00963654 0.00267153 0
vn 0 0.00945944 -0.00324331
vn 0 0.00211353 0.0097741
usemtl material_2
f 90//47 91//47 92//47
f 93//47 92//47 91//47
f 90//48 94//48 91//48
f 90//49 91//50 95//51
f 92//52 90//49 96//53
f 90//54 92//54 97//54
f 92//55 93//55 98//55
f 93//56 92//52 99//57
f 93//58 91//58 100//59
f 91//50 93//56 101//60
f 102//48 91//48 94//48
f 103//48 94//48 90//48
f 101//60 95//51 91//50
f 95//51 96//53 90//49
f 96//53 99//57 92//52
f 104//54 97//54 92//54
f 97//48 105//48 90//48
f 100//55 98//55 93//55
f 106//55 92//55 98//55
f 99//57 101//60 93//56
f 102//59 100//59 91//58
f 102//59 94//61 100//59
f 94//62 103//62 107//62
f 94//48 103//48 108//48
f 109//48 103//48 90//48
f 95//51 101//60 110//63
f 95//51 110//63 96//53
f 99//57 96//53 111//64
f 97//65 104//65 112//65
f 104//55 92//55 113//55
f 105//48 109//48 90//48
f 114//48 105//48 97//48
f 98//61 100//59 115//61
f 116//55 92//55 106//55
f 106//62 98//62 117//62
f 98//55 118//55 106//55
f 101//60 99//57 119//66
f 107//61 100//59 94//61
f 120//62 107//62 103//62
f 107//67 94//67 121//67
f 122//48 108//48 103//48
f 108//67 121//67 94//67
f 103//62 109//62 120//62
f 119//66 110//63 101//60
f 123//68 96//53 110//63
f 123//68 111//64 96//53
f 111//64 119//66 99//57
f 124//65 112//65 104//65
f 112//48 125//48 97//48
f 113//55 92//55 116//55
f 126//55 104//55 113//55
f 105//69 127//69 109//69
f 105//48 114//48 128//48
f 114//69 129//69 105//69
f 125//48 114//48 97//48
f 115//61 100//59 107//61
f 115//62 117//62 98//62
f 98//67 115//67 118//67
f 106//62 117//62 116//62
f 117//70 106//70 130//70
f 131//55 106//55 118//55
f 107//62 120//62 115//62
f 107//55 121//55 120//55
f 103//70 120//70 122//70
f 114//48 108//48 122//48
f 108//62 114//62 121//62
f 116//62 120//62 109//62
f 119//47 132//47 110//47
f 123//47 110//47 132//47
f 123//47 133//47 111//47
f 111//47 134//47 119//47
f 124//62 135//62 112//62
f 124//55 104//55 135//55
f 125//62 112//62 135//62
f 116//69 109//69 113//69
f 135//55 104//55 126//55
f 113//69 127//69 126//69
f 113//55 131//55 126//55
f 127//69 113//69 109//69
f 136//69 127//69 105//69
f 128//48 114//48 122//48
f 105//47 128//47 136//47
f 136//69 105//69 129//69
f 129//62 121//62 114//62
f 114//69 135//69 129//69
f 125//69 135//69 114//69
f 115//62 120//62 117//62
f 115//48 117//48 137//48
f 137//67 118//67 115//67
f 117//62 120//62 116//62
f 131//70 130//70 106//70
f 130//48 137//48 117//48
f 126//55 131//55 118//55
f 138//55 120//55 121//55
f 138//70 122//70 120//70
f 132//47 119//47 134//47
f 133//47 123//47 132//47
f 133//47 139//47 111//47
f 139//47 134//47 111//47
f 126//69 140//69 135//69
f 140//69 126//69 127//69
f 127//47 130//47 113//47
f 131//47 113//47 130//47
f 127//69 136//69 140//69
f 128//47 122//47 141//47
f 141//47 136//47 128//47
f 136//55 141//55 129//55
f 129//69 140//69 136//69
f 129//55 138//55 121//55
f 129//69 135//69 140//69
f 137//62 140//62 118//62
f 140//48 137//48 130//48
f 126//62 118//62 140//62
f 138//47 141//47 122//47
f 132//47 134//47 133//47
f 134//71 142//71 132//71
f 133//72 132//72 143//72
f 139//47 133//47 134//47
f 139//73 133//73 144//73
f 134//74 139//74 142//74
f 140//48 127//48 145//48
f 127//48 140//48 130//48
f 141//55 138//55 129//55
f 146//71 132//71 142//71
f 146//72 143//72 132//72
f 143//73 144//73 133//73
f 144//74 142//74 139//74
f 146//75 142//75 147//75
f 146//55 148//55 142//55
f 146//76 143//76 148//76
f 143//77 146//77 149//77
f 144//48 150//48 143//48
f 144//78 143//78 151//78
f 144//79 152//79 142//79
f 144//80 142//80 150//80
f 153//75 147//75 142//75
f 147//75 154//75 146//75
f 155//55 142//55 148//55
f 146//48 148//48 156//48
f 146//81 154//81 148//81
f 157//76 148//76 143//76
f 156//77 149//77 146//77
f 143//77 149//77 158//77
f 157//48 143//48 150//48
f 144//55 150//55 152//55
f 144//82 159//82 150//82
f 160//78 151//78 143//78
f 159//78 144//78 151//78
f 161//79 142//79 152//79
f 155//80 150//80 142//80
f 153//48 162//48 147//48
f 142//76 155//76 153//76
f 147//48 163//48 154//48
f 155//83 142//83 164//83
f 148//84 165//84 155//84
f 155//85 166//85 148//85
f 167//48 156//48 148//48
f 165//81 148//81 154//81
f 157//86 168//86 148//86
f 157//87 148//87 169//87
f 143//80 157//80 160//80
f 143//88 158//88 157//88
f 149//80 156//80 168//80
f 158//80 149//80 170//80
f 150//89 171//89 157//89
f 150//90 157//90 172//90
f 173//55 152//55 150//55
f 171//82 150//82 159//82
f 160//55 174//55 151//55
f 151//55 175//55 159//55
f 161//79 176//79 142//79
f 161//76 152//76 177//76
f 150//91 155//91 177//91
f 150//92 172//92 155//92
f 163//48 147//48 162//48
f 162//76 153//76 155//76
f 165//48 154//48 163//48
f 176//83 164//83 142//83
f 164//91 177//91 155//91
f 165//84 163//84 155//84
f 178//85 148//85 166//85
f 166//92 155//92 172//92
f 167//80 168//80 156//80
f 167//86 148//86 168//86
f 170//86 168//86 157//86
f 178//87 169//87 148//87
f 169//90 172//90 157//90
f 174//80 160//80 157//80
f 170//88 157//88 158//88
f 168//80 170//80 149//80
f 174//89 157//89 171//89
f 173//76 177//76 152//76
f 173//91 150//91 177//91
f 171//55 159//55 175//55
f 175//55 151//55 174//55
f 176//76 161//76 164//76
f 177//76 164//76 161//76
f 162//84 155//84 163//84
f 178//47 166//47 169//47
f 172//47 169//47 166//47
f 175//89 174//89 171//89
s off
g _2
v 0.122149 0.013021 0.083606
v 0.02428 0.013021 0.011553
v 0.122149 0.013021 -0.131143
v -0.124085 0.013021 0.083606
v -0.124085 0.013021 -0.131143
v -0.035446 0.013021 0.011553
v 0.02428 0.013021 -0.048171
v -0.035446 0.013021 -0.048171
vn 0 -0.01 0
usemtl material_3
f 179//93 180//93 181//93
f 180//93 179//93 182//93
f 183//93 184//93 182//93
f 181//93 185//93 183//93
f 185//93 181//93 180//93
f 180//93 182//93 184//93
f 183//93 186//93 184//93
f 183//93 185//93 186//93
s off
